<?xml version="1.0" encoding="utf-8"?>
<!-- Generator: Adobe Illustrator 18.1.0, SVG Export Plug-In . SVG Version: 6.00 Build 0)  -->
<!DOCTYPE svg PUBLIC "-//W3C//DTD SVG 1.1//EN" "http://www.w3.org/Graphics/SVG/1.1/DTD/svg11.dtd">
<svg version="1.1" id="Layer_1" xmlns="http://www.w3.org/2000/svg" xmlns:xlink="http://www.w3.org/1999/xlink" x="0px" y="0px"
	 viewBox="0 0 130 130" enable-background="new 0 0 130 130" xml:space="preserve">
<g>
	<circle fill="#33CC99" cx="49" cy="75.5" r="5"/>
</g>
<g>
	<circle fill="#33CC99" cx="68" cy="69.3" r="5"/>
</g>
<g>
	<path fill="#533F61" d="M52,82c-3.6,0-6.5-2.9-6.5-6.5S48.4,69,52,69s6.5,2.9,6.5,6.5S55.6,82,52,82z M52,72
		c-1.9,0-3.5,1.6-3.5,3.5S50.1,79,52,79s3.5-1.6,3.5-3.5S53.9,72,52,72z"/>
</g>
<g>
	<path fill="#533F61" d="M57,77c-0.8,0-1.5-0.7-1.5-1.5v-23c0-0.7,0.5-1.3,1.1-1.5l19-5c0.5-0.1,0.9,0,1.3,0.3
		c0.4,0.3,0.6,0.7,0.6,1.2V60c0,0.8-0.7,1.5-1.5,1.5s-1.5-0.7-1.5-1.5V49.4l-16,4.2v21.8C58.5,76.3,57.8,77,57,77z"/>
</g>
<g>
	<path fill="#533F61" d="M24.3,86.5c-3.2,0-5.8-2.6-5.8-5.8V69.3c0-1.5-1.2-2.8-2.8-2.8s-2.8,1.2-2.8,2.8V70c0,3.1-2.5,6.5-5.8,6.5
		H5.8c-0.8,0-1.5-0.7-1.5-1.5s0.7-1.5,1.5-1.5h1.3c1.5,0,2.8-2,2.8-3.5v-0.7c0-3.2,2.6-5.8,5.8-5.8s5.8,2.6,5.8,5.8v11.4
		c0,1.5,1.2,2.8,2.8,2.8s2.8-1.2,2.8-2.8V60c0-3.2,2.6-5.8,5.8-5.8s5.8,2.6,5.8,5.8v11.1c0,1.5,1.2,2.8,2.8,2.8
		c0.8,0,1.5,0.7,1.5,1.5s-0.7,1.5-1.5,1.5c-3.2,0-5.8-2.6-5.8-5.8V60c0-1.5-1.2-2.8-2.8-2.8s-2.8,1.2-2.8,2.8v20.7
		C30.1,83.9,27.5,86.5,24.3,86.5z"/>
</g>
<g>
	<path fill="#533F61" d="M65,126.5c-26,0-49.3-16.4-58-40.9C6.8,84.8,7.2,84,8,83.7c0.8-0.3,1.6,0.1,1.9,0.9
		c8.3,23.3,30.4,38.9,55.1,38.9c28.1,0,52-19.7,57.4-47c-3-0.2-5.3-2.7-5.3-5.8v-1.2c0-1.5-1.1-2.8-2.5-3c-0.8-0.1-1.6,0.2-2.2,0.7
		c-0.6,0.5-0.9,1.3-0.9,2.1v11.2c0,3.1-2.3,5.7-5.2,5.9c-1.6,0.2-3.2-0.4-4.5-1.5c-1.2-1.1-1.9-2.7-1.9-4.3V60.2
		c0-1.5-1.1-2.8-2.5-3c-0.8-0.1-1.6,0.2-2.2,0.7c-0.6,0.5-0.9,1.3-0.9,2.1v11.1c0,3.2-2.6,5.8-5.8,5.8c-6.1,0-14.2-8.9-15.2-10
		c-1.3-1.3-3.5-1.3-4.9,0.1c-0.6,0.6-1,1.5-1,2.5c0,1,0.4,1.8,1,2.5c1.3,1.3,3.6,1.3,4.9,0c0.6-0.6,1.5-0.6,2.1,0
		c0.6,0.6,0.6,1.5,0,2.1c-1.2,1.2-2.9,1.9-4.6,1.9s-3.4-0.7-4.6-1.9c-1.2-1.2-1.9-2.8-1.9-4.6c0-1.8,0.7-3.4,1.9-4.6
		c2.5-2.5,6.7-2.5,9.2,0c2.3,2.6,9,9,13,9c1.5,0,2.8-1.2,2.8-2.8V60c0-1.6,0.7-3.2,1.9-4.3c1.2-1.1,2.8-1.6,4.5-1.5
		c2.9,0.3,5.2,2.9,5.2,5.9v20.5c0,0.8,0.3,1.5,0.9,2.1c0.6,0.5,1.4,0.8,2.2,0.7c1.4-0.1,2.5-1.4,2.5-3V69.3c0-1.6,0.7-3.2,1.9-4.3
		c1.2-1.1,2.8-1.6,4.5-1.5c2.9,0.3,5.2,2.9,5.2,5.9v1.2c0,1.5,1.2,2.8,2.8,2.8h1.3c0.4,0,0.9,0.2,1.1,0.5c0.3,0.3,0.4,0.8,0.3,1.2
		C120.7,104.9,95.2,126.5,65,126.5z"/>
</g>
<g>
	<path fill="#533F61" d="M5.8,76.3c-0.7,0-1.4-0.5-1.5-1.3C3.8,71.8,3.5,68.4,3.5,65C3.5,31.1,31.1,3.5,65,3.5s61.5,27.6,61.5,61.5
		c0,0.8-0.7,1.5-1.5,1.5s-1.5-0.7-1.5-1.5c0-32.3-26.2-58.5-58.5-58.5S6.5,32.7,6.5,65c0,3.2,0.3,6.5,0.8,9.6
		c0.1,0.8-0.4,1.6-1.2,1.7C6,76.3,5.9,76.3,5.8,76.3z"/>
</g>
<g>
	<path fill="#533F61" d="M65,111.5c-12.4,0-24.1-4.8-32.9-13.6c-0.6-0.6-0.6-1.5,0-2.1s1.5-0.6,2.1,0c8.2,8.2,19.1,12.7,30.8,12.7
		s22.5-4.5,30.8-12.7c0.6-0.6,1.5-0.6,2.1,0s0.6,1.5,0,2.1C89.1,106.6,77.4,111.5,65,111.5z"/>
</g>
<g>
	<path fill="#533F61" d="M33.2,34.7c-0.4,0-0.8-0.1-1.1-0.4c-0.6-0.6-0.6-1.5,0-2.1C50.2,14,79.7,14,97.9,32.1
		c0.6,0.6,0.6,1.5,0,2.1s-1.5,0.6-2.1,0c-17-17-44.6-17-61.5,0C33.9,34.5,33.6,34.7,33.2,34.7z"/>
</g>
<g>
	<path fill="#533F61" d="M87.5,44c-0.4,0-0.8-0.1-1.1-0.4c-11.8-11.8-31-11.8-42.9,0c-0.6,0.6-1.5,0.6-2.1,0s-0.6-1.5,0-2.1
		c13-13,34.1-13,47.1,0c0.6,0.6,0.6,1.5,0,2.1C88.3,43.9,87.9,44,87.5,44z"/>
</g>
<g>
	<path fill="#533F61" d="M65,98.3c-8.5,0-17.1-3.2-23.6-9.7c-0.6-0.6-0.6-1.5,0-2.1s1.5-0.6,2.1,0c11.8,11.8,31,11.8,42.9,0
		c0.6-0.6,1.5-0.6,2.1,0s0.6,1.5,0,2.1C82.1,95,73.5,98.3,65,98.3z"/>
</g>
</svg>
