<?xml version="1.0" encoding="utf-8"?>
<!-- Generator: Adobe Illustrator 18.1.0, SVG Export Plug-In . SVG Version: 6.00 Build 0)  -->
<!DOCTYPE svg PUBLIC "-//W3C//DTD SVG 1.1//EN" "http://www.w3.org/Graphics/SVG/1.1/DTD/svg11.dtd">
<svg version="1.1" id="Layer_1" xmlns="http://www.w3.org/2000/svg" xmlns:xlink="http://www.w3.org/1999/xlink" x="0px" y="0px"
	 viewBox="0 0 130 130" enable-background="new 0 0 130 130" xml:space="preserve">
<g>
	<path fill="#33CC99" d="M70.3,46.9v27.6h0C70,79.8,65.5,84,60.1,84c-5.4,0-9.8-4.2-10.1-9.6h0V46.9c0-1.6,1.3-2.9,2.9-2.9
		c1.6,0,2.8,1.3,2.8,2.9v12h8.9v-12c0-1.6,1.3-2.9,2.9-2.9C69,44,70.3,45.3,70.3,46.9z"/>
</g>
<g>
	<path fill="#533F61" d="M105.7,86.5c-3.2,0-5.8-2.6-5.8-5.8V60c0-1.5-1.2-2.8-2.8-2.8s-2.8,1.2-2.8,2.8v6.1c0,3.2-2.6,5.8-5.8,5.8
		H80c-0.8,0-1.5-0.7-1.5-1.5s0.7-1.5,1.5-1.5h8.6c1.5,0,2.8-1.2,2.8-2.8V60c0-3.2,2.6-5.8,5.8-5.8s5.8,2.6,5.8,5.8v20.7
		c0,1.5,1.2,2.8,2.8,2.8s2.8-1.2,2.8-2.8V69.3c0-3.2,2.6-5.8,5.8-5.8s5.8,2.6,5.8,5.8V70c0,1.5,1.3,3.5,2.8,3.5h1.3
		c0.8,0,1.5,0.7,1.5,1.5s-0.7,1.5-1.5,1.5h-1.3c-3.3,0-5.8-3.4-5.8-6.5v-0.7c0-1.5-1.2-2.8-2.8-2.8s-2.8,1.2-2.8,2.8v11.4
		C111.5,83.9,108.9,86.5,105.7,86.5z"/>
</g>
<g>
	<path fill="#533F61" d="M65,86.5c-2.8,0-5.5-1-7.6-2.8c-2.5-2.2-4-5.4-4-8.7v-3.9c-1,0.5-2.2,0.8-3.5,0.8h-8.6c0,0,0,0-0.1,0
		c-3.1-0.1-5.6-2.6-5.6-5.8V60c0-1.5-1.2-2.8-2.8-2.8s-2.8,1.2-2.8,2.8v20.7c0,3.2-2.6,5.8-5.8,5.8s-5.8-2.6-5.8-5.8V69.3
		c0-1.5-1.2-2.8-2.8-2.8s-2.8,1.2-2.8,2.8V70c0,3.1-2.5,6.5-5.8,6.5H5.8c-0.8,0-1.5-0.7-1.5-1.5s0.7-1.5,1.5-1.5h1.3
		c1.5,0,2.8-2,2.8-3.5v-0.7c0-3.2,2.6-5.8,5.8-5.8s5.8,2.6,5.8,5.8v11.4c0,1.5,1.2,2.8,2.8,2.8s2.8-1.2,2.8-2.8V60
		c0-3.2,2.6-5.8,5.8-5.8c3.2,0,5.8,2.6,5.8,5.8v6.1c0,1.5,1.2,2.8,2.8,2.8H50c1.4,0,2.5-0.5,3.5-1.4V47.7c0-2.1,1.6-3.9,3.6-4.1
		c1.1-0.1,2.3,0.3,3.1,1c0.8,0.8,1.3,1.8,1.3,3V50c0,0.7-0.1,12.8-5,18.7V75c0,2.5,1.1,4.8,2.9,6.4c1.9,1.6,4.3,2.3,6.8,2
		c4.1-0.6,7.3-4.3,7.3-8.8c0-0.9-0.3-1.7-0.9-2.4l-4.5-5.5c-0.4-0.3-1-0.3-1.4,0c-0.2,0.2-0.3,0.4-0.3,0.7c0,0.3,0.1,0.5,0.3,0.7
		c0.1,0.1,0.1,0.1,0.1,0.2l3.5,4.7c0.5,0.7,0.4,1.6-0.3,2.1c-0.7,0.5-1.6,0.4-2.1-0.3l-3.4-4.6c-0.7-0.7-1.1-1.7-1.1-2.7
		c0-1.1,0.4-2.1,1.2-2.8c1.6-1.6,4.1-1.6,5.7,0c0,0,0.1,0.1,0.1,0.1l4.5,5.6c1,1.2,1.5,2.7,1.5,4.3c0,5.9-4.2,10.9-9.8,11.7
		C66.1,86.5,65.6,86.5,65,86.5z M57.5,46.5c0,0-0.1,0-0.1,0c-0.5,0-0.9,0.6-0.9,1.1v14.8c1.9-5.4,2-12.3,2-12.5v-2.5
		c0-0.3-0.1-0.5-0.3-0.7C58.1,46.7,57.8,46.5,57.5,46.5z"/>
</g>
<g>
	<path fill="#533F61" d="M75,66.5c-0.8,0-1.5-0.7-1.5-1.5V47.7c0-0.6-0.4-1.1-0.9-1.1c-0.4,0-0.7,0.1-0.8,0.3
		c-0.2,0.2-0.3,0.5-0.3,0.7V58c0,1.9-1.6,3.5-3.5,3.5h-3c-0.8,0-1.5-0.7-1.5-1.5s0.7-1.5,1.5-1.5h3c0.3,0,0.5-0.2,0.5-0.5V47.5
		c0-1.1,0.5-2.2,1.3-3c0.8-0.8,2-1.1,3.1-1c2,0.2,3.6,2,3.6,4.1V65C76.5,65.9,75.8,66.5,75,66.5z"/>
</g>
<g>
	<path fill="#533F61" d="M65,126.5c-26,0-49.3-16.4-58-40.9c-0.3-0.8,0.1-1.6,0.9-1.9c0.8-0.3,1.6,0.1,1.9,0.9
		c8.3,23.3,30.4,38.9,55.1,38.9c28.7,0,53-20.5,57.7-48.8c0.1-0.8,0.9-1.4,1.7-1.2c0.8,0.1,1.4,0.9,1.2,1.7
		C120.7,104.9,95.2,126.5,65,126.5z"/>
</g>
<g>
	<path fill="#533F61" d="M5.8,76.3c-0.7,0-1.4-0.5-1.5-1.3C3.8,71.8,3.5,68.4,3.5,65C3.5,31.1,31.1,3.5,65,3.5s61.5,27.6,61.5,61.5
		c0,0.8-0.7,1.5-1.5,1.5s-1.5-0.7-1.5-1.5c0-32.3-26.2-58.5-58.5-58.5S6.5,32.7,6.5,65c0,3.2,0.3,6.5,0.8,9.6
		c0.1,0.8-0.4,1.6-1.2,1.7C6,76.3,5.9,76.3,5.8,76.3z"/>
</g>
<g>
	<path fill="#533F61" d="M65,111.5c-12.4,0-24.1-4.8-32.9-13.6c-0.6-0.6-0.6-1.5,0-2.1s1.5-0.6,2.1,0c8.2,8.2,19.1,12.7,30.8,12.7
		s22.5-4.5,30.8-12.7c0.6-0.6,1.5-0.6,2.1,0s0.6,1.5,0,2.1C89.1,106.6,77.4,111.5,65,111.5z"/>
</g>
<g>
	<path fill="#533F61" d="M96.8,34.7c-0.4,0-0.8-0.1-1.1-0.4c-17-17-44.6-17-61.5,0c-0.6,0.6-1.5,0.6-2.1,0s-0.6-1.5,0-2.1
		C50.2,14,79.7,14,97.9,32.1c0.6,0.6,0.6,1.5,0,2.1C97.6,34.5,97.2,34.7,96.8,34.7z"/>
</g>
<g>
	<path fill="#533F61" d="M42.7,44c-0.4,0-0.8-0.1-1.1-0.4C41,43,41,42,41.6,41.4c13-13,34.1-13,47.1,0c0.6,0.6,0.6,1.5,0,2.1
		s-1.5,0.6-2.1,0c-11.8-11.8-31-11.8-42.9,0C43.4,43.9,43,44,42.7,44z"/>
</g>
<g>
	<path fill="#533F61" d="M65.1,98.3c-8.5,0-17.1-3.2-23.6-9.7C41,88,41,87,41.6,86.4s1.5-0.6,2.1,0c11.8,11.8,31,11.8,42.9,0
		c0.6-0.6,1.5-0.6,2.1,0s0.6,1.5,0,2.1C82.2,95,73.7,98.3,65.1,98.3z"/>
</g>
</svg>
