<?xml version="1.0" encoding="utf-8"?>
<!-- Generator: Adobe Illustrator 18.1.0, SVG Export Plug-In . SVG Version: 6.00 Build 0)  -->
<!DOCTYPE svg PUBLIC "-//W3C//DTD SVG 1.1//EN" "http://www.w3.org/Graphics/SVG/1.1/DTD/svg11.dtd">
<svg version="1.1" id="Layer_1" xmlns="http://www.w3.org/2000/svg" xmlns:xlink="http://www.w3.org/1999/xlink" x="0px" y="0px"
	 viewBox="0 0 600 204.3" enable-background="new 0 0 600 204.3" xml:space="preserve">
<g>
	<g>
		<path fill="#FFFFFF" d="M501.4,164c-7.4,0-13.5-6-13.5-13.5V16c0-7.4,6-13.5,13.5-13.5c7.4,0,13.5,6,13.5,13.5v134.5
			C514.8,157.9,508.8,164,501.4,164z"/>
	</g>
	<g>
		<path fill="#FFFFFF" d="M461,184.1c-7.4,0-13.5-6-13.5-13.5V69.8c0-7.4,6-13.5,13.5-13.5c7.4,0,13.5,6,13.5,13.5v100.9
			C474.5,178.1,468.4,184.1,461,184.1z"/>
	</g>
	<g>
		<path fill="#FFFFFF" d="M541.7,150.5c-7.4,0-13.5-6-13.5-13.5V36.2c0-7.4,6-13.5,13.5-13.5s13.5,6,13.5,13.5v100.9
			C555.2,144.5,549.2,150.5,541.7,150.5z"/>
	</g>
	<g>
		<path fill="#FFFFFF" d="M582.1,137.1c-7.4,0-13.5-6-13.5-13.5V56.3c0-7.4,6-13.5,13.5-13.5s13.5,6,13.5,13.5v67.3
			C595.6,131,589.5,137.1,582.1,137.1z"/>
	</g>
	<g>
		<path fill="#FFFFFF" d="M351.6,106.4c6,7.1,7.4,15,4.2,23.4c-3,8-9.1,12.7-17.3,14.7c-5.3,1.3-10.6,0.8-15.9-0.1
			c-1.5-0.2-3-0.5-4.5,0c-2.8,1-4.3,3.6-3.8,6.3c0.4,2.4,2.6,4.2,5.7,4.2c5.7,0.1,11.4,0,17,0c2.3,0,4.5,0,6.8,0.3
			c7.3,1.1,13.7,3.9,17.6,10.5c4.5,7.4,3.3,18.2-2.4,24.9c-4.9,5.8-11.3,8.8-18.6,10c-9.5,1.6-18.9,1.2-27.8-2.8
			c-5.1-2.3-9-6-11-11.4c-2.5-7,0-14.3,6.5-18.8c1.8-1.2,1.8-1.2-0.1-2.2c-7-3.4-9.7-9.3-9.5-15.4c0.2-7,3.9-12,9.7-15.6
			c1.3-0.8,1.2-1.2,0.5-2.3c-5.5-8.7-4.4-21.3,2.6-29.4c5.3-6.2,12-9.3,20.1-9.4c8.9-0.1,17.8,0,26.7,0c2.4,0,3.4,1,3.5,3.4
			c0,1.3,0,2.6,0,3.8c0,2-0.5,2.7-2.4,3.4C356.5,104.8,354,105.6,351.6,106.4z M331.8,169.7c-1.7-0.1-4.1,0.2-6.5,0.4
			c-3.6,0.4-6.7,3.2-7.3,6.4c-0.6,3.2,1,6.4,4.5,8c6.2,2.9,12.4,2.8,18.4-0.6c2.9-1.6,4.4-4.3,4-7.6c-0.4-3.5-2.9-5.2-6.1-6.1
			C336.8,169.7,334.7,169.7,331.8,169.7z M331.7,131c6,0,10.3-4.5,10.3-10.8c0-6.3-4.4-10.9-10.4-10.8c-5.9,0-10.4,4.6-10.5,10.7
			C321.1,126.4,325.6,131,331.7,131z"/>
		<path fill="#FFFFFF" d="M83.8,98.3c4.8-3.2,9.9-4.8,15.3-4.9c9.4-0.1,17.2,3,22.5,11.1c3.2,4.9,4.7,10.4,4.9,16.2
			c0.2,10.3,0.1,22.1,0.1,32.3c0,2.2-1.1,3.4-3.4,3.4c-3.7,0-7.3,0-11,0c-2.4,0-3.5-1.1-3.5-3.6c0-9.2,0-20,0-29.2
			c0-3.1-0.4-6.2-2.2-8.9c-2.8-4.4-7-5.7-11.9-5c-5.3,0.8-9.6,4.9-10.7,10.1c-0.1,0.5-0.1,1.1-0.1,1.6c0,9.8,0,21.1,0,30.9
			c0,3.2-0.8,4.1-4,4.1c-3.6,0-7.2,0-10.8,0c-2.6,0-3.7-1.1-3.7-3.7c0-32.5,0-65.9,0-98.4c0-2.8,1.1-3.8,3.9-3.8c3.6,0,7.2,0,10.8,0
			c2.8,0,3.8,1.1,3.8,3.9c0,14.2,0,27.6,0,41.7C83.8,96.8,83.8,97.4,83.8,98.3z"/>
		<path fill="#FFFFFF" d="M250.7,120c-2.8,5.1-5.4,10.1-8.1,15c-3.4,6.4-6.9,12.8-10.3,19.3c-1,1.9-1.8,2.3-3.8,2.1
			c-1.7-0.2-2.3-1.3-2.7-2.7c-6.1-18.4-12.2-36.8-18.3-55.2c-0.7-2.1,0-3.5,2.2-3.6c3.7-0.2,7.5-0.1,11.2,0c1.4,0,2.3,1.1,2.8,2.5
			c2.7,8.2,5.5,16.3,8.2,24.5c0.2,0.5,0.4,1,0.6,1.7c2.1-3.9,4-7.6,5.9-11.2c3-5.7,6.1-11.4,9.1-17.1c0.8-1.5,1.8-2,3.4-2
			c1.6,0,2.5,0.6,3.3,2c4.6,8.9,9.3,17.8,14,26.7c0.2,0.5,0.5,0.9,0.9,1.6c1.1-3.4,2.2-6.5,3.3-9.7c1.8-5.4,3.6-10.8,5.4-16.2
			c0.8-2.3,1.4-2.8,3.9-2.8c3.1,0,6.1,0,9.2,0c3,0,3.9,1.4,3,4.3c-6.1,18.3-12.1,36.5-18.2,54.8c-0.5,1.4-1.1,2.4-2.7,2.5
			c-1.8,0.2-2.9-0.5-3.7-2c-5.8-10.8-11.7-21.6-17.5-32.4C251.5,121.4,251.2,120.8,250.7,120z"/>
		<path fill="#FFFFFF" d="M200.4,124.9c-0.1,17.4-14.2,31.7-31,31.6c-16.9-0.2-30.7-14.5-30.5-31.8c0.1-17.2,14.3-31.4,31-31.2
			C186.6,93.6,200.5,107.9,200.4,124.9z M184,125.1c0.1-2.8-0.6-5.4-2.1-8.2c-4.6-8.6-17-9.8-23.1-2.1c-4.3,5.3-4.7,12.7-1.2,18.5
			c3.5,5.7,10.2,8.2,16.5,6.1C179.9,137.5,183.8,131.8,184,125.1z"/>
		<path fill="#FFFFFF" d="M430.9,124.9c-0.1,17.4-14.2,31.7-31,31.6c-16.9-0.2-30.7-14.5-30.5-31.8c0.1-17.2,14.3-31.4,31-31.2
			C417.1,93.6,431,107.9,430.9,124.9z M414.4,125.1c0.1-3-0.7-5.7-2.1-8.3c-4.7-8.5-17-9.5-23.1-2c-4.3,5.3-4.7,12.7-1.2,18.5
			c3.5,5.7,10.2,8.2,16.5,6.1C410.3,137.5,414.2,131.8,414.4,125.1z"/>
		<path fill="#FFFFFF" d="M27.3,156.4c-5.9-0.2-11.9-1.2-17.5-4.4c-0.6-0.3-1.1-0.6-1.6-1c-1.3-1-1.6-2.2-0.8-3.7
			c1.2-2.4,2.4-4.9,3.6-7.3c1-1.9,2-2.3,4-1.3c3.6,1.7,7.3,2.9,11.3,3.3c1.6,0.2,3.2,0.2,4.8-0.4c2.4-1,3.1-3.4,1.6-5.5
			c-0.8-1.1-2-1.8-3.1-2.4c-2.6-1.5-5.5-2.4-8.2-3.7c-4.5-2-8.7-4.4-11.7-8.5c-5.3-7.3-4.8-20.7,7-25.9c4.5-2,9.3-2.5,14.2-2.2
			c4.9,0.3,9.7,1.2,14.1,3.4c0.7,0.4,1.5,0.8,2.2,1.3c1.5,1.1,1.9,2.5,1.1,4.2c-1.1,2.4-2.3,4.8-3.5,7.2c-0.8,1.6-2.2,1.9-4.2,1.1
			c-3.6-1.5-7.2-2.6-11.1-2.9c-1.3-0.1-2.6,0-3.8,0.5c-2.5,1-3,3.8-0.8,5.5c1.1,0.9,2.4,1.4,3.6,1.9c4.8,2,9.7,3.8,14.2,6.6
			c7.7,4.6,11.1,12.5,8.6,20.7c-1.7,5.8-5.9,9.3-11.3,11.5C36,155.9,31.9,156.4,27.3,156.4z"/>
	</g>
</g>
</svg>
