<?xml version="1.0" encoding="utf-8"?>
<!-- Generator: Adobe Illustrator 18.1.0, SVG Export Plug-In . SVG Version: 6.00 Build 0)  -->
<!DOCTYPE svg PUBLIC "-//W3C//DTD SVG 1.1//EN" "http://www.w3.org/Graphics/SVG/1.1/DTD/svg11.dtd">
<svg version="1.1" id="Layer_1" xmlns="http://www.w3.org/2000/svg" xmlns:xlink="http://www.w3.org/1999/xlink" x="0px" y="0px"
	 viewBox="0 0 130 130" enable-background="new 0 0 130 130" xml:space="preserve">
<g>
	<path fill="#33CC99" d="M60.3,45c-8.3,0-15,6.7-15,15s15,30,15,30s15-21.7,15-30S68.6,45,60.3,45z M60.3,65c-2.8,0-5-2.2-5-5
		s2.2-5,5-5s5,2.2,5,5S63.1,65,60.3,65z"/>
</g>
<g>
	<path fill="#533F61" d="M65,92.6l-1.2-1.8c-0.3-0.5-4.8-6.9-8.8-14.1c-1.6,0.1-3.2,0.1-5,0.1h-8.6c-3.2,0-5.8-2.6-5.8-5.8V60
		c0-1.5-1.2-2.8-2.8-2.8s-2.8,1.2-2.8,2.8v20.7c0,3.2-2.6,5.8-5.8,5.8s-5.8-2.6-5.8-5.8V69.3c0-1.5-1.2-2.8-2.8-2.8
		s-2.8,1.2-2.8,2.8V70c0,3.1-2.5,6.5-5.8,6.5H5.8c-0.8,0-1.5-0.7-1.5-1.5s0.7-1.5,1.5-1.5h1.3c1.5,0,2.8-2,2.8-3.5v-0.7
		c0-3.2,2.6-5.8,5.8-5.8s5.8,2.6,5.8,5.8v11.4c0,1.5,1.2,2.8,2.8,2.8s2.8-1.2,2.8-2.8V60c0-3.2,2.6-5.8,5.8-5.8s5.8,2.6,5.8,5.8
		v11.1c0,1.5,1.2,2.8,2.8,2.8H50c1.2,0,2.3,0,3.4-0.1c-2.7-5.2-4.9-10.4-4.9-13.8c0-9.1,7.4-16.5,16.5-16.5
		c9.1,0,16.5,7.4,16.5,16.5c0,0.6-0.3,13.8-23.2,16.4c2.4,4.1,4.9,8.1,6.7,10.9c1.3-2,3.6-5.6,5.9-9.5c0.4-0.7,1.3-1,2.1-0.5
		c0.7,0.4,1,1.3,0.5,2.1c-3.6,6.2-7.2,11.5-7.3,11.5L65,92.6z M65,46.5c-7.4,0-13.5,6.1-13.5,13.5c0,3,2.3,8.2,5.2,13.6
		C78,71.6,78.5,60.5,78.5,60C78.5,52.5,72.4,46.5,65,46.5z"/>
</g>
<g>
	<path fill="#533F61" d="M65,66.5c-3.6,0-6.5-2.9-6.5-6.5s2.9-6.5,6.5-6.5s6.5,2.9,6.5,6.5S68.6,66.5,65,66.5z M65,56.5
		c-1.9,0-3.5,1.6-3.5,3.5s1.6,3.5,3.5,3.5s3.5-1.6,3.5-3.5S66.9,56.5,65,56.5z"/>
</g>
<g>
	<path fill="#533F61" d="M65,126.5c-26,0-49.3-16.4-58-40.9C6.8,84.8,7.2,84,8,83.7c0.8-0.3,1.6,0.1,1.9,0.9
		c8.3,23.3,30.4,38.9,55.1,38.9c28.1,0,52-19.7,57.4-47c-3.1-0.3-5.3-3.6-5.3-6.5v-0.7c0-1.5-1.2-2.8-2.8-2.8s-2.8,1.2-2.8,2.8v11.4
		c0,3.2-2.6,5.8-5.8,5.8s-5.8-2.6-5.8-5.8V60c0-1.5-1.2-2.8-2.8-2.8s-2.8,1.2-2.8,2.8v11.1c0,3.2-2.6,5.8-5.8,5.8H80
		c-0.8,0-1.5-0.7-1.5-1.5s0.7-1.5,1.5-1.5h8.6c1.5,0,2.8-1.2,2.8-2.8V60c0-3.2,2.6-5.8,5.8-5.8s5.8,2.6,5.8,5.8v20.7
		c0,1.5,1.2,2.8,2.8,2.8s2.8-1.2,2.8-2.8V69.3c0-3.2,2.6-5.8,5.8-5.8s5.8,2.6,5.8,5.8V70c0,1.5,1.3,3.5,2.8,3.5h1.3
		c0.4,0,0.9,0.2,1.1,0.5c0.3,0.3,0.4,0.8,0.3,1.2C120.7,104.9,95.2,126.5,65,126.5z"/>
</g>
<g>
	<path fill="#533F61" d="M5.8,76.3c-0.7,0-1.4-0.5-1.5-1.3C3.8,71.8,3.5,68.4,3.5,65C3.5,31.1,31.1,3.5,65,3.5s61.5,27.6,61.5,61.5
		c0,0.8-0.7,1.5-1.5,1.5s-1.5-0.7-1.5-1.5c0-32.3-26.2-58.5-58.5-58.5S6.5,32.7,6.5,65c0,3.2,0.3,6.5,0.8,9.6
		c0.1,0.8-0.4,1.6-1.2,1.7C6,76.3,5.9,76.3,5.8,76.3z"/>
</g>
<g>
	<path fill="#533F61" d="M65,111.5c-12.4,0-24.1-4.8-32.9-13.6c-0.6-0.6-0.6-1.5,0-2.1s1.5-0.6,2.1,0c8.2,8.2,19.1,12.7,30.8,12.7
		s22.5-4.5,30.8-12.7c0.6-0.6,1.5-0.6,2.1,0s0.6,1.5,0,2.1C89.1,106.7,77.4,111.5,65,111.5z"/>
</g>
<g>
	<path fill="#533F61" d="M33.2,34.7c-0.4,0-0.8-0.1-1.1-0.4c-0.6-0.6-0.6-1.5,0-2.1c8.8-8.8,20.5-13.6,32.9-13.6
		c12.4,0,24.1,4.8,32.9,13.6c0.6,0.6,0.6,1.5,0,2.1c-0.6,0.6-1.5,0.6-2.1,0C87.5,26,76.6,21.5,65,21.5S42.5,26,34.2,34.2
		C33.9,34.5,33.6,34.7,33.2,34.7z"/>
</g>
<g>
	<path fill="#533F61" d="M87.5,44c-0.4,0-0.8-0.1-1.1-0.4c-11.8-11.8-31-11.8-42.9,0c-0.6,0.6-1.5,0.6-2.1,0c-0.6-0.6-0.6-1.5,0-2.1
		c13-13,34.1-13,47.1,0c0.6,0.6,0.6,1.5,0,2.1C88.3,43.9,87.9,44,87.5,44z"/>
</g>
<g>
	<path fill="#533F61" d="M65,98.3c-8.5,0-17.1-3.2-23.6-9.7c-0.6-0.6-0.6-1.5,0-2.1s1.5-0.6,2.1,0c11.8,11.8,31,11.8,42.9,0
		c0.6-0.6,1.5-0.6,2.1,0s0.6,1.5,0,2.1C82.1,95,73.5,98.3,65,98.3z"/>
</g>
</svg>
