<?xml version="1.0" encoding="utf-8"?>
<!-- Generator: Adobe Illustrator 18.1.0, SVG Export Plug-In . SVG Version: 6.00 Build 0)  -->
<!DOCTYPE svg PUBLIC "-//W3C//DTD SVG 1.1//EN" "http://www.w3.org/Graphics/SVG/1.1/DTD/svg11.dtd">
<svg version="1.1" id="Layer_1" xmlns="http://www.w3.org/2000/svg" xmlns:xlink="http://www.w3.org/1999/xlink" x="0px" y="0px"
	 viewBox="0 0 130 130" enable-background="new 0 0 130 130" xml:space="preserve">
<g>
	<path fill="#33CC99" d="M73,76.6c0,7.3-5.9,10.8-13.2,10.8c-7.3,0-13.1-3.5-13.1-10.8c0-5.8,3.7-10.7,8.9-12.5
		c-2.7-1.5-4.6-4.4-4.6-7.7c0-4.9,3.9-8.8,8.8-8.8c4.9,0,8.8,3.9,8.8,8.8c0,3.3-1.9,6.2-4.6,7.7C69.2,65.9,73,70.8,73,76.6z"/>
</g>
<g>
	<path fill="#533F61" d="M65,88c-8.5,0-13.8-4.4-13.8-11.4c0-4.7,2.4-9.1,6.3-11.6c0.7-0.4,1.6-0.3,2.1,0.4c0.4,0.7,0.3,1.6-0.4,2.1
		c-3.1,2-5,5.4-5,9.1c0,7.8,8.3,8.4,10.8,8.4c2.5,0,10.8-0.6,10.8-8.4c0-1.6-0.4-3.2-1.1-4.7c-0.4-0.7,0-1.6,0.7-2
		c0.7-0.4,1.6,0,2,0.7c0.9,1.9,1.3,3.9,1.3,6C78.8,83.7,73.5,88,65,88z"/>
</g>
<g>
	<path fill="#533F61" d="M65,126.5c-26,0-49.3-16.4-58-40.9c-0.3-0.8,0.1-1.6,0.9-1.9c0.8-0.3,1.6,0.1,1.9,0.9
		c8.3,23.3,30.4,38.9,55.1,38.9c28.2,0,52.2-19.9,57.5-47.4h-0.6c-3.3,0-5.8-3.4-5.8-6.5v-0.7c0-1.5-1.2-2.8-2.8-2.8
		s-2.8,1.2-2.8,2.8v11.4c0,3.2-2.6,5.8-5.8,5.8c-3.2,0-5.8-2.6-5.8-5.8V56.6c0-1.5-1.2-2.8-2.8-2.8s-2.8,1.2-2.8,2.8v6.1
		c0,3.2-2.6,5.8-5.8,5.8H75c-8.1,0-13.9-1.9-17.3-5.5c-2.8-3.1-2.8-6.4-2.8-7.2c0,0,0-0.1,0-0.1c0-5.6,4.5-10.1,10.1-10.1
		S75.1,50,75.1,55.6c0,3.4-1.7,6.5-4.4,8.4c-0.7,0.5-1.6,0.3-2.1-0.4c-0.5-0.7-0.3-1.6,0.4-2.1c2-1.3,3.1-3.5,3.1-5.9
		c0-3.9-3.2-7.1-7.1-7.1c-3.9,0-7,3.1-7.1,7l0,0c0,0.1,0,0.2,0,0.3c0,0.1-0.2,2.7,2.1,5.1c2.7,2.9,7.9,4.5,15,4.5h12.6
		c1.5,0,2.8-1.2,2.8-2.8v-6.1c0-3.2,2.6-5.8,5.8-5.8s5.8,2.6,5.8,5.8v23.7c0,1.5,1.2,2.8,2.8,2.8s2.8-1.2,2.8-2.8V68.8
		c0-3.2,2.6-5.8,5.8-5.8c3.2,0,5.8,2.6,5.8,5.8v0.7c0,1.5,1.3,3.5,2.8,3.5h2.4c0.4,0,0.9,0.2,1.1,0.5c0.3,0.3,0.4,0.8,0.3,1.2
		l-0.1,0.4C120.7,104.9,95.2,126.5,65,126.5z"/>
</g>
<g>
	<path fill="#533F61" d="M23.3,86.1c-3.2,0-5.8-2.6-5.8-5.8V68.8c0-1.5-1.2-2.8-2.8-2.8s-2.8,1.2-2.8,2.8v0.7c0,3.1-2.5,6.5-5.8,6.5
		H5.7c-0.7,0-1.4-0.5-1.5-1.3c-0.5-3.2-0.8-6.4-0.8-9.8C3.5,31.1,31.1,3.5,65,3.5s61.5,27.6,61.5,61.5c0,0.8-0.7,1.5-1.5,1.5
		s-1.5-0.7-1.5-1.5c0-32.3-26.2-58.5-58.5-58.5S6.5,32.7,6.5,65c0,2.7,0.2,5.3,0.5,7.8c1.1-0.6,1.9-2,1.9-3.3v-0.7
		c0-3.2,2.6-5.8,5.8-5.8s5.8,2.6,5.8,5.8v11.4c0,1.5,1.2,2.8,2.8,2.8s2.8-1.2,2.8-2.8V56.6c0-3.2,2.6-5.8,5.8-5.8s5.8,2.6,5.8,5.8
		v6.1c0,1.5,1.2,2.8,2.8,2.8H47c0.8,0,1.5,0.7,1.5,1.5s-0.7,1.5-1.5,1.5h-6.6c-3.2,0-5.8-2.6-5.8-5.8v-6.1c0-1.5-1.2-2.8-2.8-2.8
		s-2.8,1.2-2.8,2.8v23.7C29.1,83.5,26.5,86.1,23.3,86.1z"/>
</g>
<g>
	<path fill="#533F61" d="M65,111.5c-12.4,0-24.1-4.8-32.9-13.6c-0.6-0.6-0.6-1.5,0-2.1s1.5-0.6,2.1,0c8.2,8.2,19.1,12.7,30.8,12.7
		s22.5-4.5,30.8-12.7c0.6-0.6,1.5-0.6,2.1,0s0.6,1.5,0,2.1C89.1,106.7,77.4,111.5,65,111.5z"/>
</g>
<g>
	<path fill="#533F61" d="M96.8,34.7c-0.4,0-0.8-0.1-1.1-0.4C87.5,26,76.6,21.5,65,21.5S42.4,26,34.2,34.2c-0.6,0.6-1.5,0.6-2.1,0
		c-0.6-0.6-0.6-1.5,0-2.1c8.8-8.8,20.5-13.6,32.9-13.6s24.1,4.8,32.9,13.6c0.6,0.6,0.6,1.5,0,2.1C97.6,34.5,97.2,34.7,96.8,34.7z"/>
</g>
<g>
	<path fill="#533F61" d="M87.3,44c-0.4,0-0.8-0.1-1.1-0.4c-11.8-11.8-31-11.8-42.9,0c-0.6,0.6-1.5,0.6-2.1,0c-0.6-0.6-0.6-1.5,0-2.1
		c13-13,34.1-13,47.1,0c0.6,0.6,0.6,1.5,0,2.1C88.1,43.9,87.7,44,87.3,44z"/>
</g>
<g>
	<path fill="#533F61" d="M64.8,98.3c-8.5,0-17.1-3.2-23.6-9.7c-0.6-0.6-0.6-1.5,0-2.1s1.5-0.6,2.1,0c11.8,11.8,31,11.8,42.9,0
		c0.6-0.6,1.5-0.6,2.1,0s0.6,1.5,0,2.1C81.9,95,73.4,98.3,64.8,98.3z"/>
</g>
</svg>
